<svg id="Camada_1" data-name="Camada 1" xmlns="http://www.w3.org/2000/svg" viewBox="0 0 500 500"><defs><style>.cls-1{fill:#fff;}</style></defs><title>logo-jh-white</title><path class="cls-1" d="M94.84,99v187.2c0,46.23-17.76,58.87-45.95,58.87a118.57,118.57,0,0,1-34.29-5.17L7.06,394c13.27,4.63,33.55,7.09,49.2,7.09C121.49,401,162,371.31,162,286.94V99Z"/><path class="cls-1" d="M388.23,274.63V401h68.3V168.49c-30.85,30.74-66.68,68.43-97.55,106.14Zm0-175.67v57q31.49-15.3,68.3-30.11V99ZM275.61,99h-68.3v182c20.13-20.92,45.77-43.2,78.42-65.79H275.61Z"/><path class="cls-1" d="M492.94,125.17c-1.65,1.52-212.87,195.31-217.1,275.87H225.46c27.74-121.65,169-213.67,172.32-215.84-140.5,73.67-192.33,183.5-205,215.84H147.18S170.92,232,492.94,125.17Z"/></svg>